<?xml version="1.0" encoding="UTF-8"?> <!-- Generator: Adobe Illustrator 21.0.0, SVG Export Plug-In . SVG Version: 6.00 Build 0) --> <svg xmlns="http://www.w3.org/2000/svg" xmlns:xlink="http://www.w3.org/1999/xlink" id="Слой_1" x="0px" y="0px" viewBox="0 0 900 477" style="enable-background:new 0 0 900 477;" xml:space="preserve"> <style type="text/css"> .st0{fill:#777777;} .st1{fill:none;stroke:#777777;stroke-miterlimit:10;} </style> <title>9</title> <path class="st0" d="M376.6,194.3v23.8h-1.7v-23.8h-6.6v-1.5h14.8v1.5H376.6z"></path> <path class="st0" d="M388.8,206v12h-1.7v-25.3h4.9c4.1,0,7.4,2.3,7.4,6.6s-3,6.7-7.4,6.7L388.8,206z M388.8,204.5h3.3 c3.3,0,5.5-1.9,5.5-5.1s-2.1-5.1-5.8-5.1h-3.1V204.5z"></path> <path class="st0" d="M381.7,375.8h-8.6v9.2h8.4v1.5h-8.4v13.1h-1.7v-25.4h10.3V375.8z"></path> <path class="st0" d="M388.6,387.5v12h-1.7v-25.3h4.9c4.1,0,7.4,2.3,7.4,6.6s-3,6.7-7.4,6.7L388.6,387.5z M388.6,386h3.3 c3.3,0,5.5-1.9,5.5-5.1s-2.1-5.1-5.8-5.1h-3.1V386z"></path> <path class="st0" d="M556.8,194.3h-8.6v9.2h8.4v1.5h-8.4v13.1h-1.7v-25.4h10.3V194.3z"></path> <path class="st0" d="M562,218.1v-25.6l21.3,22.3v-22h1.7v26l-21.3-22.3v21.6L562,218.1z"></path> <path class="st0" d="M667.7,194.3v23.8H666v-23.8h-6.6v-1.5h14.8v1.5H667.7z"></path> <path class="st0" d="M679.8,206v12h-1.7v-25.3h4.9c4.1,0,7.4,2.3,7.4,6.6s-3,6.7-7.4,6.7L679.8,206z M679.8,204.5h3.3 c3.3,0,5.5-1.9,5.5-5.1s-2.1-5.1-5.8-5.1h-3.1V204.5z"></path> <path class="st0" d="M701.8,204.9h7.5v-6.9h1.5v6.9h7.5v1.4h-7.5v6.9h-1.5v-6.9h-7.5V204.9z"></path> <path class="st0" d="M742.1,194.3h-8.6v9.2h8.4v1.5h-8.4v13.1h-1.7v-25.4h10.3V194.3z"></path> <path class="st0" d="M747.3,218.1v-25.6l21.3,22.3v-22h1.7v26l-21.3-22.3v21.6L747.3,218.1z"></path> <path class="st0" d="M672.5,373.3H664v9.2h8.4v1.5H664v13.1h-1.7v-25.4h10.3L672.5,373.3z"></path> <path class="st0" d="M679.4,385v12h-1.7v-25.3h4.9c4.1,0,7.4,2.3,7.4,6.6s-3,6.7-7.4,6.7L679.4,385z M679.4,383.5h3.3 c3.3,0,5.5-1.9,5.5-5.1s-2.1-5.1-5.8-5.1h-3.1V383.5z"></path> <path class="st0" d="M701.3,383.9h7.5v-6.9h1.5v6.9h7.5v1.4h-7.5v6.9h-1.5v-6.9h-7.5V383.9z"></path> <path class="st0" d="M736.7,373.3v23.8h-1.7v-23.8h-6.6v-1.5h14.8v1.5H736.7z"></path> <path class="st0" d="M747.3,397.1v-25.6l21.3,22.3v-22h1.7v26l-21.3-22.3v21.6L747.3,397.1z"></path> <path class="st0" d="M551.7,375.8v23.8H550v-23.8h-6.6v-1.5h14.8v1.5H551.7z"></path> <path class="st0" d="M562.2,399.6V374l21.3,22.3v-22h1.7v26L563.9,378v21.6L562.2,399.6z"></path> <g> <rect x="305.2" y="128" class="st1" width="158" height="158"></rect> <rect x="486.8" y="128.5" class="st1" width="158" height="158"></rect> </g> <rect x="305.2" y="309.5" class="st1" width="158" height="158"></rect> <rect x="486.8" y="309.5" class="st1" width="158" height="158"></rect> <g> <path class="st0" d="M260.3,20.1c3.2,0,5.2,1.1,6.5,2.2c1.1,1,2.2,2.8,2.2,5.7c0,1.6-0.3,3.6-2,5.2c-0.9,0.8-2.1,1.6-3.5,1.9 l7.8,10.4h-7.1l-6.8-10v10h-5.9V20.1H260.3z M257.3,31.6h1.3c1.1,0,2.5-0.1,3.5-1.1c0.4-0.4,0.9-1.2,0.9-2.5c0-1.4-0.7-2.2-1.2-2.6 c-1-0.7-2.5-0.8-3.2-0.8h-1.4V31.6z"></path> <path class="st0" d="M291.2,37.9h-12.7c0,0.9,0.3,2.1,1,2.9c0.8,0.9,2,1.1,2.8,1.1c0.8,0,1.6-0.2,2.2-0.5c0.1,0,0.7-0.5,1.2-1.4 l5.2,0.5c-0.8,2.4-2.3,3.6-3.3,4.3c-1.6,1-3.5,1.3-5.4,1.3c-2.5,0-4.8-0.5-6.8-2.4c-1.5-1.5-2.5-3.7-2.5-6.5c0-2.4,0.9-4.9,2.6-6.7 c2.1-2.1,4.6-2.4,6.5-2.4c1.9,0,4.6,0.3,6.7,2.5c2,2.1,2.4,4.8,2.4,6.9V37.9z M286.2,34.6c0-0.2-0.3-1.2-1.1-2 c-0.6-0.6-1.5-0.9-2.6-0.9c-1.4,0-2.2,0.6-2.8,1.1c-0.4,0.5-0.8,1.1-1,1.8H286.2z"></path> <path class="st0" d="M305,32.8c-0.8-0.5-1.9-0.9-3-0.9c-0.6,0-1.2,0.2-1.6,0.5c-0.2,0.2-0.3,0.5-0.3,0.8c0,0.4,0.3,0.6,0.5,0.8 c0.4,0.2,0.9,0.3,1.6,0.6l1.4,0.5c0.9,0.3,1.9,0.7,2.8,1.5c1,0.9,1.3,1.9,1.3,3.2c0,2.2-1,3.7-1.7,4.4c-1.7,1.7-3.7,1.9-5.5,1.9 c-2.3,0-4.7-0.5-7-2.4l2.3-3.7c0.5,0.5,1.3,1,1.9,1.3c0.8,0.4,1.6,0.5,2.3,0.5c0.3,0,1.2,0,1.7-0.4c0.3-0.3,0.6-0.7,0.6-1.1 c0-0.3-0.1-0.7-0.6-1c-0.4-0.2-0.9-0.4-1.7-0.6l-1.4-0.4c-1-0.3-2-0.8-2.7-1.6c-0.8-0.8-1.2-1.8-1.2-3.1c0-1.6,0.6-3,1.6-3.9 c1.5-1.4,3.6-1.7,5.1-1.7c2.5,0,4.3,0.6,5.6,1.4L305,32.8z"></path> <path class="st0" d="M316.6,28.5v9.3c0,0.8,0.1,1.9,1,2.7c0.4,0.3,1.1,0.8,2.3,0.8c1,0,1.8-0.3,2.3-0.8c0.8-0.8,0.9-1.9,0.9-2.7 v-9.3h5.5v9.9c0,1.9-0.2,3.8-1.9,5.4c-1.9,1.9-4.8,2.2-6.8,2.2c-2.1,0-4.9-0.3-6.8-2.2c-1.6-1.5-1.9-3.2-1.9-5.1V28.5H316.6z"></path> <path class="st0" d="M338.4,17.7v27.7H333V17.7H338.4z"></path> <path class="st0" d="M348.5,32.9v12.5H343V32.9h-1.9v-4.4h1.9V23h5.5v5.5h3.4v4.4H348.5z"></path> <path class="st0" d="M367.2,28.5h5.5v16.9h-5.5v-2.1c-1.5,2.3-3.6,2.6-5,2.6c-2.4,0-4.5-0.6-6.3-2.6c-1.8-1.9-2.5-4.1-2.5-6.3 c0-2.8,1.1-5.3,2.6-6.8c1.5-1.5,3.5-2.3,5.9-2.3c1.4,0,3.8,0.3,5.3,2.5V28.5z M360.2,33.8c-0.6,0.6-1.3,1.6-1.3,3.1s0.6,2.5,1.1,3 c0.8,0.8,1.9,1.3,3.2,1.3c1.1,0,2.1-0.5,2.8-1.2c0.7-0.7,1.3-1.7,1.3-3.2c0-1.2-0.5-2.4-1.3-3.1c-0.8-0.8-2.1-1.2-3-1.2 C362.1,32.6,361,33.1,360.2,33.8z"></path> <path class="st0" d="M395.4,45.4h-5.5v-2.1c-0.8,1.2-2.4,2.6-5.4,2.6c-2.5,0-4.3-0.8-5.8-2.3c-1.7-1.7-2.7-4.2-2.7-6.8 c0-2.8,1-5.1,2.7-6.7c1.5-1.4,3.6-2.3,5.9-2.3c1.9,0,3.9,0.6,5.3,2.5V17.7h5.5V45.4z M383,33.7c-0.8,0.8-1.3,1.9-1.3,3.2 c0,1.3,0.5,2.4,1.3,3.1c0.8,0.8,1.9,1.2,2.8,1.2c1,0,2.2-0.4,3.1-1.3c0.6-0.6,1.3-1.6,1.3-3c0-1.4-0.6-2.4-1.2-3.1 c-0.9-0.9-1.9-1.3-3.1-1.3C384.9,32.6,383.9,32.9,383,33.7z"></path> <path class="st0" d="M416.3,43.2c-1.5,1.5-4.1,2.7-7.4,2.7s-5.9-1.2-7.4-2.7c-1.7-1.7-2.5-4.1-2.5-6.3s0.8-4.6,2.5-6.3 c1.5-1.5,4.1-2.7,7.4-2.7s5.9,1.2,7.4,2.7c1.7,1.7,2.5,4.1,2.5,6.3S418,41.5,416.3,43.2z M405.8,33.7c-0.8,0.8-1.3,1.8-1.3,3.2 c0,1.6,0.6,2.5,1.3,3.2c0.7,0.7,1.7,1.2,3.1,1.2c1.2,0,2.2-0.4,3-1.2s1.3-1.8,1.3-3.2s-0.5-2.4-1.3-3.2c-0.8-0.8-1.8-1.2-3.1-1.2 S406.6,32.9,405.8,33.7z"></path> <path class="st0" d="M449.6,45.4h-5.5v-2.1c-0.8,1.2-2.4,2.6-5.4,2.6c-2.5,0-4.3-0.8-5.8-2.3c-1.7-1.7-2.7-4.2-2.7-6.8 c0-2.8,1-5.1,2.7-6.7c1.5-1.4,3.6-2.3,5.9-2.3c1.9,0,3.9,0.6,5.3,2.5V17.7h5.5V45.4z M437.3,33.7c-0.8,0.8-1.3,1.9-1.3,3.2 c0,1.3,0.5,2.4,1.3,3.1c0.8,0.8,1.9,1.2,2.8,1.2c1,0,2.2-0.4,3.1-1.3c0.6-0.6,1.3-1.6,1.3-3c0-1.4-0.6-2.4-1.2-3.1 c-0.9-0.9-1.9-1.3-3.1-1.3C439.1,32.6,438.1,32.9,437.3,33.7z"></path> <path class="st0" d="M471.4,37.9h-12.7c0,0.9,0.3,2.1,1,2.9c0.8,0.9,2,1.1,2.8,1.1c0.8,0,1.6-0.2,2.2-0.5c0.1,0,0.7-0.5,1.2-1.4 l5.2,0.5c-0.8,2.4-2.3,3.6-3.3,4.3c-1.6,1-3.5,1.3-5.4,1.3c-2.5,0-4.8-0.5-6.8-2.4c-1.5-1.5-2.5-3.7-2.5-6.5c0-2.4,0.9-4.9,2.6-6.7 c2.1-2.1,4.6-2.4,6.5-2.4c1.9,0,4.6,0.3,6.7,2.5c2,2.1,2.4,4.8,2.4,6.9V37.9z M466.3,34.6c0-0.2-0.3-1.2-1.1-2 c-0.6-0.6-1.5-0.9-2.6-0.9c-1.4,0-2.2,0.6-2.8,1.1c-0.4,0.5-0.8,1.1-0.9,1.8H466.3z"></path> <path class="st0" d="M489.3,17.7v27.7h-5.5V17.7H489.3z"></path> <path class="st0" d="M506.7,28.5h5.5v16.9h-5.5v-2.1c-1.5,2.3-3.6,2.6-5,2.6c-2.4,0-4.5-0.6-6.3-2.6c-1.8-1.9-2.5-4.1-2.5-6.3 c0-2.8,1.1-5.3,2.6-6.8c1.5-1.5,3.5-2.3,5.9-2.3c1.4,0,3.8,0.3,5.3,2.5V28.5z M499.7,33.8c-0.6,0.6-1.3,1.6-1.3,3.1s0.6,2.5,1.1,3 c0.8,0.8,1.9,1.3,3.2,1.3c1.1,0,2.1-0.5,2.8-1.2c0.7-0.7,1.3-1.7,1.3-3.2c0-1.2-0.5-2.4-1.3-3.1c-0.8-0.8-2.1-1.2-3-1.2 C501.6,32.6,500.5,33.1,499.7,33.8z"></path> <path class="st0" d="M530.7,54.1h-5.5V28.5h5.5v2c1.8-2.3,4-2.6,5.3-2.6c3,0,4.9,1.3,6,2.4c1.5,1.5,2.5,3.8,2.5,6.6 c0,2.9-1,5.1-2.7,6.8c-1.7,1.7-3.5,2.3-5.7,2.3c-3.4,0-4.8-1.7-5.4-2.5V54.1z M531.7,33.8c-0.9,0.9-1.3,2.1-1.3,3.1 c0,1.1,0.4,2.2,1.2,3c0.8,0.8,1.9,1.3,3.1,1.3c1,0,2.1-0.4,2.9-1.2c0.9-0.8,1.3-2.1,1.3-3.2c0-1.3-0.5-2.4-1.3-3.1 c-0.8-0.8-1.9-1.2-3-1.2C533.2,32.6,532.2,33.3,531.7,33.8z"></path> <path class="st0" d="M548,28.5h5.5v2.7c0.5-1,1.3-1.8,2.1-2.4c0.9-0.6,1.9-0.7,2.9-0.7c0.7,0,1.2,0.1,1.8,0.3l-0.3,5.1 c-0.7-0.4-1.5-0.6-2.5-0.6c-1.2,0-2.1,0.4-2.7,1.1c-1.2,1.3-1.3,3.1-1.3,4.6v6.9H548V28.5z"></path> <path class="st0" d="M579.4,37.9h-12.7c0,0.9,0.3,2.1,1,2.9c0.8,0.9,2,1.1,2.8,1.1c0.8,0,1.6-0.2,2.2-0.5c0.1,0,0.7-0.5,1.2-1.4 l5.2,0.5c-0.8,2.4-2.3,3.6-3.3,4.3c-1.6,1-3.5,1.3-5.4,1.3c-2.5,0-4.8-0.5-6.8-2.4c-1.5-1.5-2.5-3.7-2.5-6.5c0-2.4,0.9-4.9,2.6-6.7 c2.1-2.1,4.6-2.4,6.5-2.4c1.9,0,4.6,0.3,6.7,2.5c2,2.1,2.4,4.8,2.4,6.9V37.9z M574.3,34.6c0-0.2-0.3-1.2-1.1-2 c-0.6-0.6-1.5-0.9-2.6-0.9c-1.4,0-2.2,0.6-2.8,1.1c-0.4,0.5-0.8,1.1-0.9,1.8H574.3z"></path> <path class="st0" d="M601.3,45.4h-5.5v-2.1c-0.8,1.2-2.4,2.6-5.4,2.6c-2.5,0-4.3-0.8-5.8-2.3c-1.7-1.7-2.7-4.2-2.7-6.8 c0-2.8,1-5.1,2.7-6.7c1.5-1.4,3.6-2.3,5.9-2.3c1.9,0,3.9,0.6,5.3,2.5V17.7h5.5V45.4z M588.9,33.7c-0.8,0.8-1.3,1.9-1.3,3.2 c0,1.3,0.5,2.4,1.3,3.1c0.8,0.8,1.9,1.2,2.8,1.2c1,0,2.2-0.4,3.1-1.3c0.6-0.6,1.3-1.6,1.3-3c0-1.4-0.6-2.4-1.2-3.1 c-0.9-0.9-1.9-1.3-3.1-1.3C590.7,32.6,589.8,32.9,588.9,33.7z"></path> <path class="st0" d="M608.8,18c1.8,0,3.2,1.4,3.2,3.2s-1.4,3.2-3.2,3.2s-3.2-1.4-3.2-3.2S607,18,608.8,18z M611.5,28.5v16.9h-5.5 V28.5H611.5z"></path> <path class="st0" d="M628.9,33.8c-1.3-1.1-2.7-1.3-3.6-1.3c-1.7,0-2.7,0.8-3.1,1.2c-0.7,0.7-1.3,1.8-1.3,3.2c0,1.3,0.5,2.3,1.1,3 c0.8,0.9,2.1,1.4,3.3,1.4c1,0,2.2-0.3,3.5-1.3v4.9c-1.4,0.8-2.8,1-4.3,1c-2.8,0-5-1-6.6-2.5c-1.3-1.3-2.7-3.4-2.7-6.5 c0-2.9,1.2-5.2,2.8-6.7c1.9-1.8,4.1-2.4,6.5-2.4c1.5,0,2.8,0.3,4.3,1V33.8z"></path> <path class="st0" d="M645.3,33.8c-1.3-1.1-2.7-1.3-3.6-1.3c-1.7,0-2.7,0.8-3.1,1.2c-0.7,0.7-1.3,1.8-1.3,3.2c0,1.3,0.5,2.3,1.1,3 c0.8,0.9,2.1,1.4,3.3,1.4c1,0,2.2-0.3,3.5-1.3v4.9c-1.4,0.8-2.8,1-4.3,1c-2.8,0-5-1-6.6-2.5c-1.3-1.3-2.7-3.4-2.7-6.5 c0-2.9,1.2-5.2,2.8-6.7c1.9-1.8,4.1-2.4,6.5-2.4c1.5,0,2.8,0.3,4.3,1V33.8z"></path> <path class="st0" d="M652,18c1.8,0,3.2,1.4,3.2,3.2s-1.4,3.2-3.2,3.2s-3.2-1.4-3.2-3.2S650.3,18,652,18z M654.8,28.5v16.9h-5.5 V28.5H654.8z"></path> <path class="st0" d="M675.9,43.2c-1.5,1.5-4.1,2.7-7.4,2.7s-5.9-1.2-7.4-2.7c-1.7-1.7-2.5-4.1-2.5-6.3s0.8-4.6,2.5-6.3 c1.5-1.5,4.1-2.7,7.4-2.7s5.9,1.2,7.4,2.7c1.7,1.7,2.5,4.1,2.5,6.3S677.6,41.5,675.9,43.2z M665.5,33.7c-0.8,0.8-1.3,1.8-1.3,3.2 c0,1.6,0.6,2.5,1.3,3.2c0.7,0.7,1.7,1.2,3.1,1.2c1.2,0,2.2-0.4,3-1.2s1.3-1.8,1.3-3.2s-0.5-2.4-1.3-3.2c-0.8-0.8-1.8-1.2-3.1-1.2 S666.2,32.9,665.5,33.7z M674,20.7l-5.8,5.1l-2.5-1.8l4.7-5.8L674,20.7z"></path> <path class="st0" d="M681.9,28.5h5.5v2c1.7-2.1,3.6-2.5,5.2-2.5c1.5,0,3.4,0.3,4.9,1.7c1.6,1.6,1.7,3.6,1.7,5v10.7h-5.5v-8.7 c0-1.1,0-2.5-0.9-3.4c-0.4-0.4-1.1-0.8-2.1-0.8c-1.1,0-1.9,0.5-2.3,0.9c-0.9,0.9-1.1,2.1-1.1,3.2v8.7h-5.5V28.5z"></path> </g> <g> <path class="st0" d="M28.1,260.1l6.4,16.2l6.4-16.2h6.3l-10.8,25.3h-4l-10.8-25.3H28.1z"></path> <path class="st0" d="M60.6,268.5h5.5v16.9h-5.5v-2.1c-1.5,2.3-3.6,2.6-5,2.6c-2.4,0-4.5-0.6-6.3-2.6c-1.8-1.9-2.5-4.1-2.5-6.3 c0-2.8,1.1-5.3,2.6-6.8c1.5-1.5,3.5-2.3,5.9-2.3c1.4,0,3.8,0.3,5.3,2.5V268.5z M53.6,273.8c-0.6,0.6-1.3,1.6-1.3,3.1 c0,1.5,0.6,2.5,1.1,3c0.8,0.8,1.9,1.3,3.2,1.3c1.1,0,2.1-0.5,2.8-1.2c0.7-0.7,1.3-1.7,1.3-3.2c0-1.2-0.5-2.4-1.3-3.1 c-0.8-0.8-2.1-1.2-3-1.2C55.5,272.6,54.4,273.1,53.6,273.8z"></path> <path class="st0" d="M75.9,257.7v27.7h-5.5v-27.7H75.9z"></path> <path class="st0" d="M96.9,283.2c-1.5,1.5-4.1,2.7-7.4,2.7c-3.3,0-5.9-1.2-7.4-2.7c-1.7-1.7-2.5-4.1-2.5-6.3c0-2.2,0.8-4.6,2.5-6.3 c1.5-1.5,4.1-2.7,7.4-2.7c3.3,0,5.9,1.2,7.4,2.7c1.7,1.7,2.5,4.1,2.5,6.3C99.4,279.1,98.6,281.5,96.9,283.2z M86.4,273.7 c-0.8,0.8-1.3,1.8-1.3,3.2c0,1.6,0.6,2.5,1.3,3.2c0.7,0.7,1.7,1.2,3.1,1.2c1.2,0,2.2-0.4,3-1.2c0.8-0.8,1.3-1.8,1.3-3.2 c0-1.4-0.5-2.4-1.3-3.2c-0.8-0.8-1.8-1.2-3.1-1.2C88.2,272.5,87.2,272.9,86.4,273.7z"></path> <path class="st0" d="M102.8,268.5h5.5v2.7c0.5-1,1.3-1.8,2.1-2.4c0.9-0.6,1.9-0.7,2.9-0.7c0.7,0,1.2,0.1,1.8,0.3l-0.3,5.1 c-0.7-0.4-1.5-0.6-2.5-0.6c-1.2,0-2.1,0.4-2.7,1.1c-1.2,1.3-1.3,3.1-1.3,4.6v6.9h-5.5V268.5z"></path> <path class="st0" d="M36.8,303.5h5.5v16.9h-5.5v-2.1c-1.5,2.3-3.6,2.6-5,2.6c-2.4,0-4.5-0.6-6.3-2.6c-1.8-1.9-2.5-4.1-2.5-6.3 c0-2.8,1.1-5.3,2.6-6.8c1.5-1.5,3.5-2.3,5.9-2.3c1.4,0,3.8,0.3,5.3,2.5V303.5z M29.8,308.8c-0.6,0.6-1.3,1.6-1.3,3.1 c0,1.5,0.6,2.5,1.1,3c0.8,0.8,1.9,1.3,3.2,1.3c1.1,0,2.1-0.5,2.8-1.2c0.7-0.7,1.3-1.7,1.3-3.2c0-1.2-0.5-2.4-1.3-3.1 c-0.8-0.8-2.1-1.2-3-1.2C31.7,307.6,30.6,308.1,29.8,308.8z"></path> <path class="st0" d="M59.3,308.8c-1.3-1.1-2.7-1.3-3.6-1.3c-1.7,0-2.7,0.8-3.1,1.2c-0.7,0.7-1.3,1.8-1.3,3.2c0,1.3,0.5,2.3,1.1,3 c0.8,0.9,2.1,1.4,3.3,1.4c0.9,0,2.2-0.3,3.5-1.3v4.9c-1.4,0.8-2.8,1-4.3,1c-2.8,0-5-1-6.6-2.5c-1.3-1.3-2.7-3.4-2.7-6.5 c0-2.9,1.2-5.2,2.8-6.7c1.9-1.8,4.1-2.4,6.5-2.4c1.5,0,2.8,0.3,4.3,1V308.8z"></path> <path class="st0" d="M69.3,307.9v12.5h-5.5v-12.5H62v-4.4h1.9V298h5.5v5.5h3.4v4.4H69.3z"></path> <path class="st0" d="M80.5,303.5v9.3c0,0.8,0.1,1.9,1,2.7c0.4,0.3,1.1,0.8,2.3,0.8c1,0,1.8-0.3,2.3-0.8c0.8-0.8,0.9-1.9,0.9-2.7 v-9.3h5.5v9.9c0,1.9-0.2,3.8-1.9,5.4c-1.9,1.9-4.8,2.2-6.8,2.2c-2.1,0-4.9-0.3-6.8-2.2c-1.6-1.5-1.9-3.2-1.9-5.1v-10.2H80.5z"></path> <path class="st0" d="M109.7,303.5h5.5v16.9h-5.5v-2.1c-1.5,2.3-3.6,2.6-5,2.6c-2.4,0-4.5-0.6-6.3-2.6c-1.8-1.9-2.5-4.1-2.5-6.3 c0-2.8,1.1-5.3,2.6-6.8c1.5-1.5,3.5-2.3,5.9-2.3c1.4,0,3.8,0.3,5.3,2.5V303.5z M102.8,308.8c-0.6,0.6-1.3,1.6-1.3,3.1 c0,1.5,0.6,2.5,1.1,3c0.8,0.8,1.9,1.3,3.2,1.3c1.1,0,2.1-0.5,2.8-1.2c0.7-0.7,1.3-1.7,1.3-3.2c0-1.2-0.5-2.4-1.3-3.1 c-0.8-0.8-2.1-1.2-3-1.2C104.6,307.6,103.5,308.1,102.8,308.8z"></path> <path class="st0" d="M125.1,292.7v27.7h-5.5v-27.7H125.1z"></path> </g> <g> <path class="st0" d="M196.1,207.2v12h-1.7v-25.3h4.9c4.1,0,7.4,2.3,7.4,6.6c0,4.2-3,6.7-7.4,6.7H196.1z M196.1,205.7h3.3 c3.3,0,5.5-1.9,5.5-5.1c0-3.2-2.1-5.1-5.8-5.1h-3.1V205.7z"></path> <path class="st0" d="M224.4,211.5c0,4.6-3.5,8.1-8.1,8.1c-4.6,0-8.1-3.5-8.1-8.1s3.5-8.1,8.1-8.1 C220.8,203.4,224.4,206.9,224.4,211.5z M222.8,211.5c0-3.8-2.8-6.7-6.5-6.7c-3.7,0-6.5,2.9-6.5,6.7s2.8,6.7,6.5,6.7 C220,218.2,222.8,215.3,222.8,211.5z"></path> <path class="st0" d="M235.8,206.6c-0.5-1.2-1.6-1.7-2.7-1.7c-1.7,0-2.6,1.3-2.6,2.5c0,1.5,1.2,2,2.7,2.6c1.6,0.6,3,1,4,2.3 c0.6,0.8,0.8,1.6,0.8,2.5c0,3.5-2.7,4.9-5.1,4.9c-2.6,0-4.7-1.5-5.4-4.1l1.5-0.5c0.5,2.1,2.2,3.1,3.9,3.1c2,0,3.5-1.4,3.5-3.4 c0-1.7-1.1-2.4-3.5-3.3c-1.6-0.6-2.7-1.1-3.4-2.1c-0.3-0.5-0.7-1.1-0.7-2c0-2.4,1.8-4,4.1-4c1.8,0,3.3,0.8,4.1,2.5L235.8,206.6z"></path> <path class="st0" d="M241.2,198.6c0-0.8,0.6-1.4,1.4-1.4c0.8,0,1.4,0.6,1.4,1.4s-0.6,1.4-1.4,1.4 C241.8,200,241.2,199.4,241.2,198.6z M243.4,203.7v15.5h-1.5v-15.5H243.4z"></path> <path class="st0" d="M250.5,205.2v14.1h-1.5v-14.1h-1.7v-1.4h1.7v-5.5h1.5v5.5h2.7v1.4H250.5z"></path> <path class="st0" d="M255.6,198.6c0-0.8,0.6-1.4,1.4-1.4c0.8,0,1.4,0.6,1.4,1.4s-0.6,1.4-1.4,1.4 C256.2,200,255.6,199.4,255.6,198.6z M257.7,203.7v15.5h-1.5v-15.5H257.7z"></path> <path class="st0" d="M262.4,203.7l5.5,12.9l5.4-12.9h1.7l-7.1,16.5l-7.1-16.5H262.4z"></path> <path class="st0" d="M293.3,211.5c0,4.6-3.5,8.1-8.1,8.1c-4.6,0-8.1-3.5-8.1-8.1s3.5-8.1,8.1-8.1 C289.8,203.4,293.3,206.9,293.3,211.5z M291.7,211.5c0-3.8-2.8-6.7-6.5-6.7c-3.7,0-6.5,2.9-6.5,6.7s2.8,6.7,6.5,6.7 C288.9,218.2,291.7,215.3,291.7,211.5z"></path> </g> <g> <path class="st0" d="M160.1,399.8v-25.6l21.3,22.3v-22h1.7v26l-21.3-22.3v21.6H160.1z"></path> <path class="st0" d="M189.8,392.3c0,4,2.9,6.5,6.2,6.5c2.5,0,4.4-1.5,5.4-3.5l1.3,0.8c-0.9,1.7-3,4.2-6.8,4.2 c-4.8,0-7.6-3.6-7.6-8.1c0-5.4,3.7-8.2,7.5-8.2c4.2,0,7.3,3.3,7.3,8.3H189.8z M201.4,390.8c-0.4-3.1-2.7-5.4-5.7-5.4 c-3.2,0-5.4,2.4-5.8,5.4H201.4z"></path> <path class="st0" d="M221.8,384.3v15c0,5.9-2.9,9.2-7.8,9.2c-4,0-7.4-2.4-7.6-6.6h1.6c0.3,3.2,2.7,5.2,6,5.2c6.1,0,6.3-6.2,6.3-7.8 v-2.2c-1.6,2.2-3.9,3.1-6.1,3.1c-3.8,0-7.6-2.8-7.6-8.2c0-4.5,3-8.1,7.8-8.1c2.5,0,4.6,1.1,5.9,3v-2.7H221.8z M208.1,392.1 c0,3.7,2.4,6.6,6,6.6c3.8,0,6.2-3,6.2-6.8c0-3.6-2.4-6.6-6.2-6.6C210.4,385.4,208.1,388.6,208.1,392.1z"></path> <path class="st0" d="M239.9,384.3h1.5v15.5h-1.5V397c-1.6,2.4-4,3.2-6,3.2c-4.1,0-7.6-3.1-7.6-8.2c0-4.8,3-8.1,7.6-8.1 c2.4,0,4.6,1,6,3V384.3z M227.9,391.9c0,3.5,2.2,6.8,6.1,6.8c3.9,0,6-3.3,6-6.8c0-4.6-3.4-6.5-6-6.5 C230.9,385.4,227.9,387.7,227.9,391.9z"></path> <path class="st0" d="M248.5,385.8v14.1H247v-14.1h-1.7v-1.4h1.7v-5.5h1.5v5.5h2.7v1.4H248.5z"></path> <path class="st0" d="M253.7,379.1c0-0.8,0.6-1.4,1.4-1.4c0.8,0,1.4,0.6,1.4,1.4s-0.6,1.4-1.4,1.4 C254.3,380.6,253.7,380,253.7,379.1z M255.8,384.3v15.5h-1.5v-15.5H255.8z"></path> <path class="st0" d="M260.5,384.3l5.5,12.9l5.4-12.9h1.7l-7.1,16.5l-7.1-16.5H260.5z"></path> <path class="st0" d="M291.4,392.1c0,4.6-3.5,8.1-8.1,8.1c-4.6,0-8.1-3.5-8.1-8.1s3.5-8.1,8.1-8.1 C287.8,384,291.4,387.5,291.4,392.1z M289.8,392.1c0-3.8-2.8-6.7-6.5-6.7c-3.7,0-6.5,2.9-6.5,6.7s2.8,6.7,6.5,6.7 C286.9,398.8,289.8,395.9,289.8,392.1z"></path> </g> <g> <path class="st0" d="M500.9,103.1V77.5l21.3,22.3v-22h1.7v26l-21.3-22.3v21.6H500.9z"></path> <path class="st0" d="M530.7,95.6c0,4,2.9,6.5,6.2,6.5c2.5,0,4.4-1.5,5.4-3.5l1.3,0.8c-0.9,1.7-3,4.2-6.8,4.2 c-4.8,0-7.6-3.6-7.6-8.1c0-5.4,3.7-8.2,7.5-8.2c4.2,0,7.3,3.3,7.3,8.3H530.7z M542.3,94.1c-0.4-3.1-2.7-5.4-5.7-5.4 c-3.2,0-5.4,2.4-5.8,5.4H542.3z"></path> <path class="st0" d="M562.7,87.6v15c0,5.9-2.9,9.2-7.8,9.2c-4,0-7.4-2.4-7.6-6.6h1.6c0.3,3.2,2.7,5.2,6,5.2c6.1,0,6.3-6.2,6.3-7.8 v-2.2c-1.6,2.2-3.9,3.1-6.1,3.1c-3.8,0-7.6-2.8-7.6-8.2c0-4.5,3-8.1,7.8-8.1c2.5,0,4.6,1.1,5.9,3v-2.7H562.7z M549,95.5 c0,3.7,2.4,6.6,6,6.6c3.8,0,6.2-3,6.2-6.8c0-3.6-2.4-6.6-6.2-6.6C551.3,88.7,549,91.9,549,95.5z"></path> <path class="st0" d="M580.8,87.6h1.5v15.5h-1.5v-2.8c-1.6,2.4-4,3.2-6,3.2c-4.1,0-7.6-3.1-7.6-8.2c0-4.8,3-8.1,7.6-8.1 c2.4,0,4.6,1,6,3V87.6z M568.8,95.3c0,3.5,2.2,6.8,6.1,6.8c3.9,0,6-3.3,6-6.8c0-4.6-3.4-6.5-6-6.5 C571.7,88.7,568.8,91.1,568.8,95.3z"></path> <path class="st0" d="M589.4,89.1v14.1h-1.5V89.1h-1.7v-1.4h1.7v-5.5h1.5v5.5h2.7v1.4H589.4z"></path> <path class="st0" d="M594.5,82.5c0-0.8,0.6-1.4,1.4-1.4s1.4,0.6,1.4,1.4s-0.6,1.4-1.4,1.4S594.5,83.3,594.5,82.5z M596.7,87.6v15.5 h-1.5V87.6H596.7z"></path> <path class="st0" d="M601.4,87.6l5.5,12.9l5.4-12.9h1.7l-7.1,16.5l-7.1-16.5H601.4z"></path> <path class="st0" d="M632.2,95.4c0,4.6-3.5,8.1-8.1,8.1s-8.1-3.5-8.1-8.1s3.5-8.1,8.1-8.1S632.2,90.8,632.2,95.4z M630.6,95.4 c0-3.8-2.8-6.7-6.5-6.7s-6.5,2.9-6.5,6.7s2.8,6.7,6.5,6.7S630.6,99.2,630.6,95.4z"></path> </g> <g> <path class="st0" d="M337.3,95.9v12h-1.7V82.6h4.9c4.1,0,7.4,2.3,7.4,6.6c0,4.2-3,6.7-7.4,6.7H337.3z M337.3,94.3h3.3 c3.3,0,5.5-1.9,5.5-5.1c0-3.2-2.1-5.1-5.8-5.1h-3.1V94.3z"></path> <path class="st0" d="M365.6,100.2c0,4.6-3.5,8.1-8.1,8.1c-4.6,0-8.1-3.5-8.1-8.1s3.5-8.1,8.1-8.1 C362.1,92.1,365.6,95.6,365.6,100.2z M364,100.2c0-3.8-2.8-6.7-6.5-6.7c-3.7,0-6.5,2.9-6.5,6.7s2.8,6.7,6.5,6.7 C361.2,106.9,364,103.9,364,100.2z"></path> <path class="st0" d="M377,95.2c-0.5-1.2-1.6-1.7-2.7-1.7c-1.7,0-2.6,1.3-2.6,2.5c0,1.5,1.2,2,2.7,2.6c1.6,0.6,3,1,4,2.3 c0.6,0.8,0.8,1.6,0.8,2.5c0,3.5-2.7,4.9-5.1,4.9c-2.6,0-4.7-1.5-5.4-4.1l1.5-0.5c0.5,2.1,2.2,3.1,3.9,3.1c2,0,3.5-1.4,3.5-3.4 c0-1.7-1.1-2.4-3.5-3.3c-1.6-0.6-2.7-1.1-3.4-2.1c-0.3-0.5-0.7-1.1-0.7-2c0-2.4,1.8-4,4.1-4c1.8,0,3.3,0.8,4.1,2.5L377,95.2z"></path> <path class="st0" d="M382.5,87.2c0-0.8,0.6-1.4,1.4-1.4c0.8,0,1.4,0.6,1.4,1.4s-0.6,1.4-1.4,1.4C383.1,88.6,382.5,88.1,382.5,87.2z M384.6,92.4v15.5h-1.5V92.4H384.6z"></path> <path class="st0" d="M391.7,93.8v14.1h-1.5V93.8h-1.7v-1.4h1.7v-5.5h1.5v5.5h2.7v1.4H391.7z"></path> <path class="st0" d="M396.8,87.2c0-0.8,0.6-1.4,1.4-1.4c0.8,0,1.4,0.6,1.4,1.4s-0.6,1.4-1.4,1.4C397.4,88.6,396.8,88.1,396.8,87.2z M399,92.4v15.5h-1.5V92.4H399z"></path> <path class="st0" d="M403.7,92.4l5.5,12.9l5.4-12.9h1.7l-7.1,16.5L402,92.4H403.7z"></path> <path class="st0" d="M434.5,100.2c0,4.6-3.5,8.1-8.1,8.1c-4.6,0-8.1-3.5-8.1-8.1s3.5-8.1,8.1-8.1C431,92.1,434.5,95.6,434.5,100.2z M432.9,100.2c0-3.8-2.8-6.7-6.5-6.7c-3.7,0-6.5,2.9-6.5,6.7s2.8,6.7,6.5,6.7C430.1,106.9,432.9,103.9,432.9,100.2z"></path> </g> </svg> 